<?xml version="1.0" standalone="no"?><!DOCTYPE svg PUBLIC "-//W3C//DTD SVG 1.1//EN" "http://www.w3.org/Graphics/SVG/1.1/DTD/svg11.dtd"><svg t="1590550339420" class="icon" viewBox="0 0 1024 1024" version="1.1" xmlns="http://www.w3.org/2000/svg" p-id="12115" xmlns:xlink="http://www.w3.org/1999/xlink" width="200" height="200"><defs><style type="text/css"></style></defs><path d="M878.47 727.94a22.45 22.45 0 0 0-31.74 0l-92.31 92.31-2.26-670.83a22.45 22.45 0 0 0-22.52-22.37 22.45 22.45 0 0 0-22.37 22.52l2.24 663.58-85.21-85.21a22.45 22.45 0 0 0-31.74 0 22.45 22.45 0 0 0 0 31.74l121.62 121.64a22.58 22.58 0 0 0 4.46 4.46l0.89 0.89a22.73 22.73 0 0 0 32 0l127-127a22.45 22.45 0 0 0-0.06-31.73z" p-id="12116"></path><path d="M137.21 172.33l423.5 0 0 44.89-423.5 0 0-44.89Z" p-id="12117"></path><path d="M137.21 478.95l271.04 0 0 44.89-271.04 0 0-44.89Z" p-id="12118"></path><path d="M137.21 793.06l423.5 0 0 44.89-423.5 0 0-44.89Z" p-id="12119"></path></svg>